<svg id="visual" viewBox="0 0 1920 1080" width="1920" height="1080" xmlns="http://www.w3.org/2000/svg" xmlns:xlink="http://www.w3.org/1999/xlink" version="1.1"><rect x="0" y="0" width="1920" height="1080" fill="#000000"></rect><path d="M0 272L17.8 272C35.7 272 71.3 272 106.8 259.3C142.3 246.7 177.7 221.3 213.2 206.5C248.7 191.7 284.3 187.3 320 200C355.7 212.7 391.3 242.3 426.8 245C462.3 247.7 497.7 223.3 533.2 220.5C568.7 217.7 604.3 236.3 640 244.3C675.7 252.3 711.3 249.7 746.8 241.8C782.3 234 817.7 221 853.2 224.2C888.7 227.3 924.3 246.7 960 251C995.7 255.3 1031.3 244.7 1066.8 237.2C1102.3 229.7 1137.7 225.3 1173.2 228.3C1208.7 231.3 1244.3 241.7 1280 243.3C1315.7 245 1351.3 238 1386.8 224.8C1422.3 211.7 1457.7 192.3 1493.2 196.3C1528.7 200.3 1564.3 227.7 1600 228C1635.7 228.3 1671.3 201.7 1706.8 198.7C1742.3 195.7 1777.7 216.3 1813.2 217.2C1848.7 218 1884.3 199 1902.2 189.5L1920 180L1920 0L1902.2 0C1884.3 0 1848.7 0 1813.2 0C1777.7 0 1742.3 0 1706.8 0C1671.3 0 1635.7 0 1600 0C1564.3 0 1528.7 0 1493.2 0C1457.7 0 1422.3 0 1386.8 0C1351.3 0 1315.7 0 1280 0C1244.3 0 1208.7 0 1173.2 0C1137.7 0 1102.3 0 1066.8 0C1031.3 0 995.7 0 960 0C924.3 0 888.7 0 853.2 0C817.7 0 782.3 0 746.8 0C711.3 0 675.7 0 640 0C604.3 0 568.7 0 533.2 0C497.7 0 462.3 0 426.8 0C391.3 0 355.7 0 320 0C284.3 0 248.7 0 213.2 0C177.7 0 142.3 0 106.8 0C71.3 0 35.7 0 17.8 0L0 0Z" fill="#101010"></path><path d="M0 192L17.8 199C35.7 206 71.3 220 106.8 225.2C142.3 230.3 177.7 226.7 213.2 214.5C248.7 202.3 284.3 181.7 320 176.3C355.7 171 391.3 181 426.8 179.2C462.3 177.3 497.7 163.7 533.2 156.3C568.7 149 604.3 148 640 157.5C675.7 167 711.3 187 746.8 199.8C782.3 212.7 817.7 218.3 853.2 214.8C888.7 211.3 924.3 198.7 960 199.7C995.7 200.7 1031.3 215.3 1066.8 209.5C1102.3 203.7 1137.7 177.3 1173.2 173.5C1208.7 169.7 1244.3 188.3 1280 201.7C1315.7 215 1351.3 223 1386.8 225.7C1422.3 228.3 1457.7 225.7 1493.2 212C1528.7 198.3 1564.3 173.7 1600 170.8C1635.7 168 1671.3 187 1706.8 187.8C1742.3 188.7 1777.7 171.3 1813.2 174.8C1848.7 178.3 1884.3 202.7 1902.2 214.8L1920 227L1920 0L1902.2 0C1884.3 0 1848.7 0 1813.2 0C1777.7 0 1742.3 0 1706.8 0C1671.3 0 1635.7 0 1600 0C1564.3 0 1528.7 0 1493.2 0C1457.7 0 1422.3 0 1386.8 0C1351.3 0 1315.7 0 1280 0C1244.3 0 1208.7 0 1173.2 0C1137.7 0 1102.3 0 1066.8 0C1031.3 0 995.7 0 960 0C924.3 0 888.7 0 853.2 0C817.7 0 782.3 0 746.8 0C711.3 0 675.7 0 640 0C604.3 0 568.7 0 533.2 0C497.7 0 462.3 0 426.8 0C391.3 0 355.7 0 320 0C284.3 0 248.7 0 213.2 0C177.7 0 142.3 0 106.8 0C71.3 0 35.7 0 17.8 0L0 0Z" fill="#323232"></path><path d="M0 134L17.8 132.3C35.7 130.7 71.3 127.3 106.8 129.8C142.3 132.3 177.7 140.7 213.2 146C248.7 151.3 284.3 153.7 320 151C355.7 148.3 391.3 140.7 426.8 137.3C462.3 134 497.7 135 533.2 139.3C568.7 143.7 604.3 151.3 640 150.3C675.7 149.3 711.3 139.7 746.8 141.7C782.3 143.7 817.7 157.3 853.2 162C888.7 166.7 924.3 162.3 960 155.3C995.7 148.3 1031.3 138.7 1066.8 144.2C1102.3 149.7 1137.7 170.3 1173.2 169.3C1208.7 168.3 1244.3 145.7 1280 143.2C1315.7 140.7 1351.3 158.3 1386.8 158.7C1422.3 159 1457.7 142 1493.2 136.2C1528.7 130.3 1564.3 135.7 1600 142.5C1635.7 149.3 1671.3 157.7 1706.8 164.3C1742.3 171 1777.7 176 1813.2 172.3C1848.7 168.7 1884.3 156.3 1902.2 150.2L1920 144L1920 0L1902.2 0C1884.3 0 1848.7 0 1813.2 0C1777.7 0 1742.3 0 1706.8 0C1671.3 0 1635.7 0 1600 0C1564.3 0 1528.7 0 1493.2 0C1457.7 0 1422.3 0 1386.8 0C1351.3 0 1315.7 0 1280 0C1244.3 0 1208.7 0 1173.2 0C1137.7 0 1102.3 0 1066.8 0C1031.3 0 995.7 0 960 0C924.3 0 888.7 0 853.2 0C817.7 0 782.3 0 746.8 0C711.3 0 675.7 0 640 0C604.3 0 568.7 0 533.2 0C497.7 0 462.3 0 426.8 0C391.3 0 355.7 0 320 0C284.3 0 248.7 0 213.2 0C177.7 0 142.3 0 106.8 0C71.3 0 35.7 0 17.8 0L0 0Z" fill="#565656"></path><path d="M0 130L17.8 124.5C35.7 119 71.3 108 106.8 109.3C142.3 110.7 177.7 124.3 213.2 124.8C248.7 125.3 284.3 112.7 320 106.8C355.7 101 391.3 102 426.8 108.2C462.3 114.3 497.7 125.7 533.2 134C568.7 142.3 604.3 147.7 640 144C675.7 140.3 711.3 127.7 746.8 126C782.3 124.3 817.7 133.7 853.2 132.5C888.7 131.3 924.3 119.7 960 118C995.7 116.3 1031.3 124.7 1066.8 124.2C1102.3 123.7 1137.7 114.3 1173.2 119.2C1208.7 124 1244.3 143 1280 142.3C1315.7 141.7 1351.3 121.3 1386.8 111.3C1422.3 101.3 1457.7 101.7 1493.2 110.7C1528.7 119.7 1564.3 137.3 1600 137.8C1635.7 138.3 1671.3 121.7 1706.8 117.2C1742.3 112.7 1777.7 120.3 1813.2 121.5C1848.7 122.7 1884.3 117.3 1902.2 114.7L1920 112L1920 0L1902.2 0C1884.3 0 1848.7 0 1813.2 0C1777.7 0 1742.3 0 1706.8 0C1671.3 0 1635.7 0 1600 0C1564.3 0 1528.7 0 1493.2 0C1457.7 0 1422.3 0 1386.8 0C1351.3 0 1315.7 0 1280 0C1244.3 0 1208.7 0 1173.2 0C1137.7 0 1102.3 0 1066.8 0C1031.3 0 995.7 0 960 0C924.3 0 888.7 0 853.2 0C817.7 0 782.3 0 746.8 0C711.3 0 675.7 0 640 0C604.3 0 568.7 0 533.2 0C497.7 0 462.3 0 426.8 0C391.3 0 355.7 0 320 0C284.3 0 248.7 0 213.2 0C177.7 0 142.3 0 106.8 0C71.3 0 35.7 0 17.8 0L0 0Z" fill="#7d7d7d"></path><path d="M0 90L17.8 92.8C35.7 95.7 71.3 101.3 106.8 105.3C142.3 109.3 177.7 111.7 213.2 111C248.7 110.3 284.3 106.7 320 105.7C355.7 104.7 391.3 106.3 426.8 106.8C462.3 107.3 497.7 106.7 533.2 109C568.7 111.3 604.3 116.7 640 120.2C675.7 123.7 711.3 125.3 746.8 125.2C782.3 125 817.7 123 853.2 115.3C888.7 107.7 924.3 94.3 960 92C995.7 89.7 1031.3 98.3 1066.8 102.7C1102.3 107 1137.7 107 1173.2 105C1208.7 103 1244.3 99 1280 93.3C1315.7 87.7 1351.3 80.3 1386.8 79C1422.3 77.7 1457.7 82.3 1493.2 85.8C1528.7 89.3 1564.3 91.7 1600 94.3C1635.7 97 1671.3 100 1706.8 100.7C1742.3 101.3 1777.7 99.7 1813.2 103.3C1848.7 107 1884.3 116 1902.2 120.5L1920 125L1920 0L1902.2 0C1884.3 0 1848.7 0 1813.2 0C1777.7 0 1742.3 0 1706.8 0C1671.3 0 1635.7 0 1600 0C1564.3 0 1528.7 0 1493.2 0C1457.7 0 1422.3 0 1386.8 0C1351.3 0 1315.7 0 1280 0C1244.3 0 1208.7 0 1173.2 0C1137.7 0 1102.3 0 1066.8 0C1031.3 0 995.7 0 960 0C924.3 0 888.7 0 853.2 0C817.7 0 782.3 0 746.8 0C711.3 0 675.7 0 640 0C604.3 0 568.7 0 533.2 0C497.7 0 462.3 0 426.8 0C391.3 0 355.7 0 320 0C284.3 0 248.7 0 213.2 0C177.7 0 142.3 0 106.8 0C71.3 0 35.7 0 17.8 0L0 0Z" fill="#a6a6a6"></path><path d="M0 66L17.8 69.8C35.7 73.7 71.3 81.3 106.8 82.5C142.3 83.7 177.7 78.3 213.2 78.8C248.7 79.3 284.3 85.7 320 89.3C355.7 93 391.3 94 426.8 89.2C462.3 84.3 497.7 73.7 533.2 69.5C568.7 65.3 604.3 67.7 640 66C675.7 64.3 711.3 58.7 746.8 59.5C782.3 60.3 817.7 67.7 853.2 71.2C888.7 74.7 924.3 74.3 960 71.3C995.7 68.3 1031.3 62.7 1066.8 61.5C1102.3 60.3 1137.7 63.7 1173.2 69.2C1208.7 74.7 1244.3 82.3 1280 78.8C1315.7 75.3 1351.3 60.7 1386.8 55.8C1422.3 51 1457.7 56 1493.2 57.3C1528.7 58.7 1564.3 56.3 1600 59.5C1635.7 62.7 1671.3 71.3 1706.8 73C1742.3 74.7 1777.7 69.3 1813.2 63.5C1848.7 57.7 1884.3 51.3 1902.2 48.2L1920 45L1920 0L1902.2 0C1884.3 0 1848.7 0 1813.2 0C1777.7 0 1742.3 0 1706.8 0C1671.3 0 1635.7 0 1600 0C1564.3 0 1528.7 0 1493.2 0C1457.7 0 1422.3 0 1386.8 0C1351.3 0 1315.7 0 1280 0C1244.3 0 1208.7 0 1173.2 0C1137.7 0 1102.3 0 1066.8 0C1031.3 0 995.7 0 960 0C924.3 0 888.7 0 853.2 0C817.7 0 782.3 0 746.8 0C711.3 0 675.7 0 640 0C604.3 0 568.7 0 533.2 0C497.7 0 462.3 0 426.8 0C391.3 0 355.7 0 320 0C284.3 0 248.7 0 213.2 0C177.7 0 142.3 0 106.8 0C71.3 0 35.7 0 17.8 0L0 0Z" fill="#d2d2d2"></path><path d="M0 43L17.8 41.5C35.7 40 71.3 37 106.8 35.8C142.3 34.7 177.7 35.3 213.2 35.3C248.7 35.3 284.3 34.7 320 34.8C355.7 35 391.3 36 426.8 38C462.3 40 497.7 43 533.2 45.3C568.7 47.7 604.3 49.3 640 45.8C675.7 42.3 711.3 33.7 746.8 33.2C782.3 32.7 817.7 40.3 853.2 45C888.7 49.7 924.3 51.3 960 51C995.7 50.7 1031.3 48.3 1066.8 46.8C1102.3 45.3 1137.7 44.7 1173.2 41C1208.7 37.3 1244.3 30.7 1280 30.5C1315.7 30.3 1351.3 36.7 1386.8 36C1422.3 35.3 1457.7 27.7 1493.2 24.3C1528.7 21 1564.3 22 1600 26.8C1635.7 31.7 1671.3 40.3 1706.8 43.8C1742.3 47.3 1777.7 45.7 1813.2 47.3C1848.7 49 1884.3 54 1902.2 56.5L1920 59L1920 0L1902.2 0C1884.3 0 1848.7 0 1813.2 0C1777.7 0 1742.3 0 1706.8 0C1671.3 0 1635.7 0 1600 0C1564.3 0 1528.7 0 1493.2 0C1457.7 0 1422.3 0 1386.8 0C1351.3 0 1315.7 0 1280 0C1244.3 0 1208.7 0 1173.2 0C1137.7 0 1102.3 0 1066.8 0C1031.3 0 995.7 0 960 0C924.3 0 888.7 0 853.2 0C817.7 0 782.3 0 746.8 0C711.3 0 675.7 0 640 0C604.3 0 568.7 0 533.2 0C497.7 0 462.3 0 426.8 0C391.3 0 355.7 0 320 0C284.3 0 248.7 0 213.2 0C177.7 0 142.3 0 106.8 0C71.3 0 35.7 0 17.8 0L0 0Z" fill="#ffffff"></path></svg>