<svg id="visual" viewBox="0 0 1920 1080" width="1920" height="1080" xmlns="http://www.w3.org/2000/svg" xmlns:xlink="http://www.w3.org/1999/xlink" version="1.1"><g stroke-width="1" stroke-linejoin="bevel"><path d="M965 598L1017 675L1022 631Z" fill="#5a5a5a" stroke="#000000"></path><path d="M965 598L915 653L1017 675Z" fill="#1e1e1e" stroke="#000000"></path><path d="M915 653L976 731L1017 675Z" fill="#484848" stroke="#000000"></path><path d="M915 653L875 719L976 731Z" fill="#171717" stroke="#000000"></path><path d="M976 731L1102 693L1017 675Z" fill="#363636" stroke="#000000"></path><path d="M1017 675L1102 693L1022 631Z" fill="#1e1e1e" stroke="#000000"></path><path d="M964 802L985 788L976 731Z" fill="#363636" stroke="#000000"></path><path d="M976 731L985 788L1102 693Z" fill="#363636" stroke="#000000"></path><path d="M875 719L964 802L976 731Z" fill="#515151" stroke="#000000"></path><path d="M1102 693L1099 555L1022 631Z" fill="#3f3f3f" stroke="#000000"></path><path d="M1022 631L1099 555L965 598Z" fill="#171717" stroke="#000000"></path><path d="M942 444L830 568L965 598Z" fill="#3f3f3f" stroke="#000000"></path><path d="M965 598L830 568L915 653Z" fill="#1e1e1e" stroke="#000000"></path><path d="M915 653L782 679L875 719Z" fill="#262626" stroke="#000000"></path><path d="M875 719L944 838L964 802Z" fill="#515151" stroke="#000000"></path><path d="M964 802L944 838L985 788Z" fill="#3f3f3f" stroke="#000000"></path><path d="M985 788L1110 832L1102 693Z" fill="#515151" stroke="#000000"></path><path d="M1181 790L1168 645L1102 693Z" fill="#3f3f3f" stroke="#000000"></path><path d="M1102 693L1168 645L1099 555Z" fill="#171717" stroke="#000000"></path><path d="M830 568L782 679L915 653Z" fill="#1e1e1e" stroke="#000000"></path><path d="M875 719L824 833L944 838Z" fill="#2e2e2e" stroke="#000000"></path><path d="M1099 555L942 444L965 598Z" fill="#484848" stroke="#000000"></path><path d="M692 565L768 684L782 679Z" fill="#363636" stroke="#000000"></path><path d="M782 679L824 833L875 719Z" fill="#2e2e2e" stroke="#000000"></path><path d="M1168 645L1197 620L1099 555Z" fill="#3f3f3f" stroke="#000000"></path><path d="M1099 555L1091 447L942 444Z" fill="#262626" stroke="#000000"></path><path d="M944 838L1110 832L985 788Z" fill="#5a5a5a" stroke="#000000"></path><path d="M1168 645L1330 719L1197 620Z" fill="#1e1e1e" stroke="#000000"></path><path d="M1197 620L1145 491L1099 555Z" fill="#171717" stroke="#000000"></path><path d="M1145 491L1091 447L1099 555Z" fill="#2e2e2e" stroke="#000000"></path><path d="M768 684L824 833L782 679Z" fill="#1e1e1e" stroke="#000000"></path><path d="M824 833L836 856L944 838Z" fill="#5a5a5a" stroke="#000000"></path><path d="M944 838L996 961L1110 832Z" fill="#0d0d0d" stroke="#000000"></path><path d="M1110 832L1181 790L1102 693Z" fill="#484848" stroke="#000000"></path><path d="M768 684L813 842L824 833Z" fill="#2e2e2e" stroke="#000000"></path><path d="M824 833L813 842L836 856Z" fill="#3f3f3f" stroke="#000000"></path><path d="M1091 447L1009 381L942 444Z" fill="#1e1e1e" stroke="#000000"></path><path d="M880 361L786 437L942 444Z" fill="#1e1e1e" stroke="#000000"></path><path d="M942 444L786 437L830 568Z" fill="#262626" stroke="#000000"></path><path d="M830 568L692 565L782 679Z" fill="#000000" stroke="#000000"></path><path d="M786 437L724 516L830 568Z" fill="#1e1e1e" stroke="#000000"></path><path d="M724 516L692 565L830 568Z" fill="#262626" stroke="#000000"></path><path d="M670 803L745 863L813 842Z" fill="#2e2e2e" stroke="#000000"></path><path d="M1009 381L880 361L942 444Z" fill="#2e2e2e" stroke="#000000"></path><path d="M745 863L836 856L813 842Z" fill="#000000" stroke="#000000"></path><path d="M745 863L848 928L836 856Z" fill="#484848" stroke="#000000"></path><path d="M836 856L848 928L944 838Z" fill="#262626" stroke="#000000"></path><path d="M848 928L996 961L944 838Z" fill="#363636" stroke="#000000"></path><path d="M1110 832L1183 939L1181 790Z" fill="#000000" stroke="#000000"></path><path d="M670 803L813 842L768 684Z" fill="#000000" stroke="#000000"></path><path d="M1231 425L1187 398L1145 491Z" fill="#0d0d0d" stroke="#000000"></path><path d="M1145 491L1187 398L1091 447Z" fill="#363636" stroke="#000000"></path><path d="M1163 305L1055 278L1009 381Z" fill="#000000" stroke="#000000"></path><path d="M1009 381L919 223L880 361Z" fill="#1e1e1e" stroke="#000000"></path><path d="M786 437L676 492L724 516Z" fill="#171717" stroke="#000000"></path><path d="M724 516L676 492L692 565Z" fill="#1e1e1e" stroke="#000000"></path><path d="M632 590L670 803L768 684Z" fill="#171717" stroke="#000000"></path><path d="M642 444L676 492L786 437Z" fill="#2e2e2e" stroke="#000000"></path><path d="M1292 450L1231 425L1145 491Z" fill="#1e1e1e" stroke="#000000"></path><path d="M1292 450L1145 491L1197 620Z" fill="#3f3f3f" stroke="#000000"></path><path d="M1330 719L1312 599L1197 620Z" fill="#3f3f3f" stroke="#000000"></path><path d="M632 590L768 684L692 565Z" fill="#484848" stroke="#000000"></path><path d="M586 816L669 806L670 803Z" fill="#0d0d0d" stroke="#000000"></path><path d="M670 803L669 806L745 863Z" fill="#363636" stroke="#000000"></path><path d="M1064 994L1057 984L1030 1080Z" fill="#515151" stroke="#000000"></path><path d="M996 961L1057 984L1110 832Z" fill="#515151" stroke="#000000"></path><path d="M1344 627L1328 592L1312 599Z" fill="#0d0d0d" stroke="#000000"></path><path d="M598 561L632 590L692 565Z" fill="#1e1e1e" stroke="#000000"></path><path d="M880 361L780 358L786 437Z" fill="#5a5a5a" stroke="#000000"></path><path d="M1030 1080L1057 984L996 961Z" fill="#171717" stroke="#000000"></path><path d="M1057 984L1183 939L1110 832Z" fill="#484848" stroke="#000000"></path><path d="M846 265L771 353L780 358Z" fill="#515151" stroke="#000000"></path><path d="M780 358L759 356L786 437Z" fill="#2e2e2e" stroke="#000000"></path><path d="M1330 719L1168 645L1181 790Z" fill="#363636" stroke="#000000"></path><path d="M1312 599L1292 450L1197 620Z" fill="#3f3f3f" stroke="#000000"></path><path d="M1064 994L1183 939L1057 984Z" fill="#000000" stroke="#000000"></path><path d="M771 353L759 356L780 358Z" fill="#515151" stroke="#000000"></path><path d="M1349 728L1330 719L1326 807Z" fill="#484848" stroke="#000000"></path><path d="M1330 719L1344 627L1312 599Z" fill="#5a5a5a" stroke="#000000"></path><path d="M1352 517L1292 450L1312 599Z" fill="#3f3f3f" stroke="#000000"></path><path d="M1204 267L1163 305L1270 277Z" fill="#3f3f3f" stroke="#000000"></path><path d="M1352 517L1312 599L1328 592Z" fill="#0d0d0d" stroke="#000000"></path><path d="M1163 305L1091 447L1187 398Z" fill="#0d0d0d" stroke="#000000"></path><path d="M1163 305L1009 381L1091 447Z" fill="#262626" stroke="#000000"></path><path d="M880 361L846 265L780 358Z" fill="#0d0d0d" stroke="#000000"></path><path d="M730 230L711 350L759 356Z" fill="#000000" stroke="#000000"></path><path d="M695 1038L849 1006L848 928Z" fill="#000000" stroke="#000000"></path><path d="M848 928L849 1006L996 961Z" fill="#484848" stroke="#000000"></path><path d="M797 1080L849 1006L695 1038Z" fill="#000000" stroke="#000000"></path><path d="M1326 807L1330 719L1181 790Z" fill="#3f3f3f" stroke="#000000"></path><path d="M1330 719L1406 654L1344 627Z" fill="#515151" stroke="#000000"></path><path d="M676 492L598 561L692 565Z" fill="#2e2e2e" stroke="#000000"></path><path d="M528 783L586 816L670 803Z" fill="#1e1e1e" stroke="#000000"></path><path d="M642 444L598 561L676 492Z" fill="#515151" stroke="#000000"></path><path d="M1183 939L1326 807L1181 790Z" fill="#5a5a5a" stroke="#000000"></path><path d="M711 350L642 444L786 437Z" fill="#171717" stroke="#000000"></path><path d="M1163 305L1187 398L1270 277Z" fill="#171717" stroke="#000000"></path><path d="M730 230L759 356L771 353Z" fill="#262626" stroke="#000000"></path><path d="M759 356L711 350L786 437Z" fill="#363636" stroke="#000000"></path><path d="M1412 646L1328 592L1344 627Z" fill="#3f3f3f" stroke="#000000"></path><path d="M1412 646L1352 517L1328 592Z" fill="#262626" stroke="#000000"></path><path d="M1204 267L1143 280L1163 305Z" fill="#1e1e1e" stroke="#000000"></path><path d="M919 223L846 265L880 361Z" fill="#2e2e2e" stroke="#000000"></path><path d="M1163 305L1143 280L1055 278Z" fill="#484848" stroke="#000000"></path><path d="M1055 278L919 223L1009 381Z" fill="#484848" stroke="#000000"></path><path d="M1187 398L1231 425L1270 277Z" fill="#515151" stroke="#000000"></path><path d="M562 455L579 560L598 561Z" fill="#3f3f3f" stroke="#000000"></path><path d="M598 561L579 560L632 590Z" fill="#515151" stroke="#000000"></path><path d="M630 267L675 358L711 350Z" fill="#5a5a5a" stroke="#000000"></path><path d="M711 350L675 358L642 444Z" fill="#515151" stroke="#000000"></path><path d="M642 444L562 455L598 561Z" fill="#0d0d0d" stroke="#000000"></path><path d="M528 783L670 803L632 590Z" fill="#262626" stroke="#000000"></path><path d="M669 806L618 903L745 863Z" fill="#2e2e2e" stroke="#000000"></path><path d="M1143 280L1053 230L1055 278Z" fill="#262626" stroke="#000000"></path><path d="M849 1006L945 1074L996 961Z" fill="#1e1e1e" stroke="#000000"></path><path d="M1064 994L1188 1080L1183 939Z" fill="#484848" stroke="#000000"></path><path d="M1053 230L919 223L1055 278Z" fill="#484848" stroke="#000000"></path><path d="M846 265L730 230L771 353Z" fill="#515151" stroke="#000000"></path><path d="M1440 704L1406 654L1349 728Z" fill="#171717" stroke="#000000"></path><path d="M1349 728L1406 654L1330 719Z" fill="#171717" stroke="#000000"></path><path d="M586 816L610 884L669 806Z" fill="#262626" stroke="#000000"></path><path d="M849 1006L869 1080L945 1074Z" fill="#484848" stroke="#000000"></path><path d="M945 1074L1030 1080L996 961Z" fill="#171717" stroke="#000000"></path><path d="M1183 939L1359 856L1326 807Z" fill="#2e2e2e" stroke="#000000"></path><path d="M1326 807L1387 859L1349 728Z" fill="#000000" stroke="#000000"></path><path d="M1387 859L1359 856L1395 888Z" fill="#262626" stroke="#000000"></path><path d="M1440 704L1412 646L1406 654Z" fill="#000000" stroke="#000000"></path><path d="M1406 654L1412 646L1344 627Z" fill="#1e1e1e" stroke="#000000"></path><path d="M610 884L618 903L669 806Z" fill="#363636" stroke="#000000"></path><path d="M1030 1080L1065 1080L1064 994Z" fill="#262626" stroke="#000000"></path><path d="M797 1080L869 1080L849 1006Z" fill="#3f3f3f" stroke="#000000"></path><path d="M945 1074L869 1080L1030 1080Z" fill="#3f3f3f" stroke="#000000"></path><path d="M1270 277L1231 425L1292 450Z" fill="#000000" stroke="#000000"></path><path d="M1143 280L1112 173L1053 230Z" fill="#5a5a5a" stroke="#000000"></path><path d="M1025 114L897 200L919 223Z" fill="#171717" stroke="#000000"></path><path d="M919 223L873 197L846 265Z" fill="#0d0d0d" stroke="#000000"></path><path d="M675 358L562 455L642 444Z" fill="#2e2e2e" stroke="#000000"></path><path d="M471 652L528 783L632 590Z" fill="#000000" stroke="#000000"></path><path d="M897 200L873 197L919 223Z" fill="#000000" stroke="#000000"></path><path d="M1377 936L1359 856L1183 939Z" fill="#262626" stroke="#000000"></path><path d="M1359 856L1387 859L1326 807Z" fill="#3f3f3f" stroke="#000000"></path><path d="M675 358L553 453L562 455Z" fill="#171717" stroke="#000000"></path><path d="M562 455L498 487L579 560Z" fill="#5a5a5a" stroke="#000000"></path><path d="M630 267L553 453L675 358Z" fill="#515151" stroke="#000000"></path><path d="M471 652L632 590L579 560Z" fill="#3f3f3f" stroke="#000000"></path><path d="M586 816L477 865L610 884Z" fill="#515151" stroke="#000000"></path><path d="M610 884L468 943L618 903Z" fill="#171717" stroke="#000000"></path><path d="M695 1038L848 928L745 863Z" fill="#171717" stroke="#000000"></path><path d="M1387 859L1440 704L1349 728Z" fill="#2e2e2e" stroke="#000000"></path><path d="M1405 386L1292 450L1352 517Z" fill="#484848" stroke="#000000"></path><path d="M1465 623L1352 517L1412 646Z" fill="#000000" stroke="#000000"></path><path d="M1356 295L1270 277L1292 450Z" fill="#363636" stroke="#000000"></path><path d="M1204 267L1112 173L1143 280Z" fill="#484848" stroke="#000000"></path><path d="M703 1080L695 1038L610 1080Z" fill="#2e2e2e" stroke="#000000"></path><path d="M618 903L695 1038L745 863Z" fill="#262626" stroke="#000000"></path><path d="M1065 1080L1188 1080L1064 994Z" fill="#0d0d0d" stroke="#000000"></path><path d="M1188 1080L1259 1037L1183 939Z" fill="#2e2e2e" stroke="#000000"></path><path d="M797 147L730 230L846 265Z" fill="#515151" stroke="#000000"></path><path d="M1377 936L1395 888L1359 856Z" fill="#1e1e1e" stroke="#000000"></path><path d="M1387 859L1537 773L1440 704Z" fill="#3f3f3f" stroke="#000000"></path><path d="M1542 620L1465 623L1440 704Z" fill="#484848" stroke="#000000"></path><path d="M1440 704L1465 623L1412 646Z" fill="#515151" stroke="#000000"></path><path d="M1208 101L1112 173L1204 267Z" fill="#515151" stroke="#000000"></path><path d="M1053 230L1025 114L919 223Z" fill="#262626" stroke="#000000"></path><path d="M825 0L797 147L873 197Z" fill="#363636" stroke="#000000"></path><path d="M1328 1007L1377 936L1183 939Z" fill="#5a5a5a" stroke="#000000"></path><path d="M466 385L498 487L553 453Z" fill="#0d0d0d" stroke="#000000"></path><path d="M553 453L498 487L562 455Z" fill="#0d0d0d" stroke="#000000"></path><path d="M498 487L471 652L579 560Z" fill="#000000" stroke="#000000"></path><path d="M1446 409L1405 386L1352 517Z" fill="#363636" stroke="#000000"></path><path d="M1342 1080L1328 1007L1259 1037Z" fill="#1e1e1e" stroke="#000000"></path><path d="M1259 1037L1328 1007L1183 939Z" fill="#171717" stroke="#000000"></path><path d="M610 1080L695 1038L618 903Z" fill="#2e2e2e" stroke="#000000"></path><path d="M695 1038L703 1080L797 1080Z" fill="#3f3f3f" stroke="#000000"></path><path d="M730 230L630 267L711 350Z" fill="#171717" stroke="#000000"></path><path d="M1405 386L1356 295L1292 450Z" fill="#515151" stroke="#000000"></path><path d="M1208 101L1095 136L1112 173Z" fill="#3f3f3f" stroke="#000000"></path><path d="M1208 101L1204 267L1270 277Z" fill="#3f3f3f" stroke="#000000"></path><path d="M1112 173L1095 136L1053 230Z" fill="#1e1e1e" stroke="#000000"></path><path d="M873 197L797 147L846 265Z" fill="#2e2e2e" stroke="#000000"></path><path d="M1550 469L1446 409L1352 517Z" fill="#484848" stroke="#000000"></path><path d="M1405 386L1442 237L1356 295Z" fill="#262626" stroke="#000000"></path><path d="M968 0L873 197L897 200Z" fill="#2e2e2e" stroke="#000000"></path><path d="M730 230L720 160L630 267Z" fill="#000000" stroke="#000000"></path><path d="M1473 1042L1438 912L1377 936Z" fill="#5a5a5a" stroke="#000000"></path><path d="M1377 936L1438 912L1395 888Z" fill="#000000" stroke="#000000"></path><path d="M1395 888L1438 912L1387 859Z" fill="#262626" stroke="#000000"></path><path d="M1095 136L1025 114L1053 230Z" fill="#484848" stroke="#000000"></path><path d="M471 652L429 695L528 783Z" fill="#0d0d0d" stroke="#000000"></path><path d="M528 783L477 865L586 816Z" fill="#1e1e1e" stroke="#000000"></path><path d="M371 592L437 667L471 652Z" fill="#515151" stroke="#000000"></path><path d="M396 758L477 865L528 783Z" fill="#1e1e1e" stroke="#000000"></path><path d="M1442 237L1338 242L1356 295Z" fill="#484848" stroke="#000000"></path><path d="M1356 295L1338 242L1270 277Z" fill="#171717" stroke="#000000"></path><path d="M437 667L429 695L471 652Z" fill="#1e1e1e" stroke="#000000"></path><path d="M371 592L427 675L437 667Z" fill="#171717" stroke="#000000"></path><path d="M437 667L427 675L429 695Z" fill="#171717" stroke="#000000"></path><path d="M797 147L720 160L730 230Z" fill="#262626" stroke="#000000"></path><path d="M1095 136L1027 92L1025 114Z" fill="#5a5a5a" stroke="#000000"></path><path d="M1025 114L968 0L897 200Z" fill="#515151" stroke="#000000"></path><path d="M797 147L773 90L720 160Z" fill="#000000" stroke="#000000"></path><path d="M1086 0L1027 92L1095 136Z" fill="#0d0d0d" stroke="#000000"></path><path d="M597 1080L610 1080L618 903Z" fill="#0d0d0d" stroke="#000000"></path><path d="M1188 1080L1342 1080L1259 1037Z" fill="#000000" stroke="#000000"></path><path d="M1328 1007L1473 1042L1377 936Z" fill="#0d0d0d" stroke="#000000"></path><path d="M1593 712L1542 620L1440 704Z" fill="#171717" stroke="#000000"></path><path d="M1465 623L1550 469L1352 517Z" fill="#363636" stroke="#000000"></path><path d="M1542 620L1544 612L1465 623Z" fill="#262626" stroke="#000000"></path><path d="M630 267L466 385L553 453Z" fill="#2e2e2e" stroke="#000000"></path><path d="M498 487L371 592L471 652Z" fill="#363636" stroke="#000000"></path><path d="M462 260L466 385L630 267Z" fill="#2e2e2e" stroke="#000000"></path><path d="M468 943L597 1080L618 903Z" fill="#262626" stroke="#000000"></path><path d="M1573 838L1537 773L1438 912Z" fill="#171717" stroke="#000000"></path><path d="M1438 912L1537 773L1387 859Z" fill="#000000" stroke="#000000"></path><path d="M1542 620L1586 619L1544 612Z" fill="#0d0d0d" stroke="#000000"></path><path d="M1550 469L1497 389L1446 409Z" fill="#484848" stroke="#000000"></path><path d="M1446 409L1505 369L1405 386Z" fill="#5a5a5a" stroke="#000000"></path><path d="M406 850L468 943L477 865Z" fill="#5a5a5a" stroke="#000000"></path><path d="M477 865L468 943L610 884Z" fill="#000000" stroke="#000000"></path><path d="M355 750L396 758L429 695Z" fill="#171717" stroke="#000000"></path><path d="M429 695L396 758L528 783Z" fill="#1e1e1e" stroke="#000000"></path><path d="M355 750L429 695L427 675Z" fill="#171717" stroke="#000000"></path><path d="M1342 1080L1376 1080L1328 1007Z" fill="#1e1e1e" stroke="#000000"></path><path d="M466 385L426 427L498 487Z" fill="#2e2e2e" stroke="#000000"></path><path d="M825 0L773 90L797 147Z" fill="#484848" stroke="#000000"></path><path d="M720 160L546 179L630 267Z" fill="#0d0d0d" stroke="#000000"></path><path d="M1341 107L1208 101L1338 242Z" fill="#262626" stroke="#000000"></path><path d="M1338 242L1208 101L1270 277Z" fill="#484848" stroke="#000000"></path><path d="M1550 469L1505 369L1497 389Z" fill="#2e2e2e" stroke="#000000"></path><path d="M1497 389L1505 369L1446 409Z" fill="#3f3f3f" stroke="#000000"></path><path d="M1544 612L1550 469L1465 623Z" fill="#171717" stroke="#000000"></path><path d="M396 758L406 850L477 865Z" fill="#5a5a5a" stroke="#000000"></path><path d="M426 427L371 592L498 487Z" fill="#262626" stroke="#000000"></path><path d="M396 758L376 804L406 850Z" fill="#363636" stroke="#000000"></path><path d="M1593 712L1586 619L1542 620Z" fill="#484848" stroke="#000000"></path><path d="M1544 612L1580 498L1550 469Z" fill="#000000" stroke="#000000"></path><path d="M355 750L376 804L396 758Z" fill="#3f3f3f" stroke="#000000"></path><path d="M1537 773L1593 712L1440 704Z" fill="#0d0d0d" stroke="#000000"></path><path d="M1573 838L1593 712L1537 773Z" fill="#000000" stroke="#000000"></path><path d="M1505 369L1442 237L1405 386Z" fill="#363636" stroke="#000000"></path><path d="M1624 325L1535 295L1505 369Z" fill="#363636" stroke="#000000"></path><path d="M1505 369L1535 295L1442 237Z" fill="#5a5a5a" stroke="#000000"></path><path d="M1586 619L1580 498L1544 612Z" fill="#0d0d0d" stroke="#000000"></path><path d="M1750 487L1580 498L1586 619Z" fill="#484848" stroke="#000000"></path><path d="M313 619L355 750L427 675Z" fill="#363636" stroke="#000000"></path><path d="M1629 982L1573 838L1438 912Z" fill="#262626" stroke="#000000"></path><path d="M658 79L546 179L720 160Z" fill="#2e2e2e" stroke="#000000"></path><path d="M466 385L393 291L426 427Z" fill="#000000" stroke="#000000"></path><path d="M1376 1080L1473 1042L1328 1007Z" fill="#484848" stroke="#000000"></path><path d="M546 179L462 260L630 267Z" fill="#262626" stroke="#000000"></path><path d="M299 514L313 619L371 592Z" fill="#171717" stroke="#000000"></path><path d="M394 961L468 943L406 850Z" fill="#484848" stroke="#000000"></path><path d="M455 1064L485 1072L468 943Z" fill="#2e2e2e" stroke="#000000"></path><path d="M468 943L485 1072L597 1080Z" fill="#171717" stroke="#000000"></path><path d="M1086 0L968 0L1027 92Z" fill="#262626" stroke="#000000"></path><path d="M1027 92L968 0L1025 114Z" fill="#363636" stroke="#000000"></path><path d="M773 90L658 79L720 160Z" fill="#171717" stroke="#000000"></path><path d="M462 260L430 292L466 385Z" fill="#000000" stroke="#000000"></path><path d="M652 73L658 79L742 0Z" fill="#000000" stroke="#000000"></path><path d="M1442 237L1341 107L1338 242Z" fill="#5a5a5a" stroke="#000000"></path><path d="M1208 101L1172 22L1095 136Z" fill="#2e2e2e" stroke="#000000"></path><path d="M1177 0L1172 22L1280 0Z" fill="#484848" stroke="#000000"></path><path d="M1172 22L1086 0L1095 136Z" fill="#0d0d0d" stroke="#000000"></path><path d="M533 154L440 262L462 260Z" fill="#0d0d0d" stroke="#000000"></path><path d="M462 260L440 262L430 292Z" fill="#171717" stroke="#000000"></path><path d="M533 154L462 260L546 179Z" fill="#171717" stroke="#000000"></path><path d="M742 0L658 79L773 90Z" fill="#3f3f3f" stroke="#000000"></path><path d="M658 79L533 154L546 179Z" fill="#171717" stroke="#000000"></path><path d="M338 876L394 961L406 850Z" fill="#484848" stroke="#000000"></path><path d="M338 876L406 850L376 804Z" fill="#000000" stroke="#000000"></path><path d="M299 514L371 592L426 427Z" fill="#5a5a5a" stroke="#000000"></path><path d="M371 592L313 619L427 675Z" fill="#000000" stroke="#000000"></path><path d="M260 878L338 876L376 804Z" fill="#262626" stroke="#000000"></path><path d="M393 291L466 385L430 292Z" fill="#2e2e2e" stroke="#000000"></path><path d="M652 73L533 154L658 79Z" fill="#363636" stroke="#000000"></path><path d="M1624 325L1505 369L1550 469Z" fill="#515151" stroke="#000000"></path><path d="M1456 69L1345 88L1341 107Z" fill="#363636" stroke="#000000"></path><path d="M968 0L825 0L873 197Z" fill="#363636" stroke="#000000"></path><path d="M394 961L455 1064L468 943Z" fill="#1e1e1e" stroke="#000000"></path><path d="M1341 107L1345 88L1208 101Z" fill="#2e2e2e" stroke="#000000"></path><path d="M1456 69L1341 107L1442 237Z" fill="#363636" stroke="#000000"></path><path d="M260 878L376 804L355 750Z" fill="#3f3f3f" stroke="#000000"></path><path d="M394 961L413 1080L455 1064Z" fill="#5a5a5a" stroke="#000000"></path><path d="M1280 0L1172 22L1208 101Z" fill="#5a5a5a" stroke="#000000"></path><path d="M1172 22L1177 0L1086 0Z" fill="#262626" stroke="#000000"></path><path d="M825 0L766 0L773 90Z" fill="#1e1e1e" stroke="#000000"></path><path d="M267 226L393 291L440 262Z" fill="#484848" stroke="#000000"></path><path d="M440 262L393 291L430 292Z" fill="#515151" stroke="#000000"></path><path d="M1673 817L1656 723L1593 712Z" fill="#5a5a5a" stroke="#000000"></path><path d="M1593 712L1656 723L1586 619Z" fill="#0d0d0d" stroke="#000000"></path><path d="M1656 337L1624 325L1550 469Z" fill="#484848" stroke="#000000"></path><path d="M1673 817L1593 712L1573 838Z" fill="#262626" stroke="#000000"></path><path d="M766 0L742 0L773 90Z" fill="#262626" stroke="#000000"></path><path d="M500 0L429 72L533 154Z" fill="#2e2e2e" stroke="#000000"></path><path d="M267 399L299 514L426 427Z" fill="#2e2e2e" stroke="#000000"></path><path d="M313 619L277 644L355 750Z" fill="#1e1e1e" stroke="#000000"></path><path d="M218 568L277 644L313 619Z" fill="#484848" stroke="#000000"></path><path d="M1376 1080L1534 1080L1473 1042Z" fill="#363636" stroke="#000000"></path><path d="M1473 1042L1629 982L1438 912Z" fill="#5a5a5a" stroke="#000000"></path><path d="M408 1080L413 1080L394 961Z" fill="#3f3f3f" stroke="#000000"></path><path d="M455 1064L413 1080L485 1072Z" fill="#3f3f3f" stroke="#000000"></path><path d="M485 1072L413 1080L597 1080Z" fill="#363636" stroke="#000000"></path><path d="M374 1080L408 1080L394 961Z" fill="#484848" stroke="#000000"></path><path d="M1373 0L1280 0L1345 88Z" fill="#5a5a5a" stroke="#000000"></path><path d="M1345 88L1280 0L1208 101Z" fill="#5a5a5a" stroke="#000000"></path><path d="M1690 895L1673 817L1573 838Z" fill="#363636" stroke="#000000"></path><path d="M267 399L266 516L299 514Z" fill="#484848" stroke="#000000"></path><path d="M299 514L266 516L313 619Z" fill="#171717" stroke="#000000"></path><path d="M1550 469L1580 498L1679 350Z" fill="#1e1e1e" stroke="#000000"></path><path d="M1656 337L1550 469L1679 350Z" fill="#5a5a5a" stroke="#000000"></path><path d="M1526 134L1456 69L1442 237Z" fill="#363636" stroke="#000000"></path><path d="M1534 1080L1629 982L1473 1042Z" fill="#2e2e2e" stroke="#000000"></path><path d="M1690 895L1699 785L1673 817Z" fill="#1e1e1e" stroke="#000000"></path><path d="M1673 817L1699 785L1656 723Z" fill="#2e2e2e" stroke="#000000"></path><path d="M245 933L394 961L338 876Z" fill="#1e1e1e" stroke="#000000"></path><path d="M213 987L374 1080L394 961Z" fill="#515151" stroke="#000000"></path><path d="M1679 350L1580 498L1750 487Z" fill="#0d0d0d" stroke="#000000"></path><path d="M1526 134L1442 237L1535 295Z" fill="#5a5a5a" stroke="#000000"></path><path d="M251 361L267 399L393 291Z" fill="#0d0d0d" stroke="#000000"></path><path d="M393 291L267 399L426 427Z" fill="#262626" stroke="#000000"></path><path d="M277 644L260 878L355 750Z" fill="#1e1e1e" stroke="#000000"></path><path d="M170 883L260 878L277 644Z" fill="#5a5a5a" stroke="#000000"></path><path d="M218 568L313 619L266 516Z" fill="#3f3f3f" stroke="#000000"></path><path d="M1526 134L1535 295L1575 126Z" fill="#1e1e1e" stroke="#000000"></path><path d="M1575 126L1535 295L1624 325Z" fill="#3f3f3f" stroke="#000000"></path><path d="M1629 982L1690 895L1573 838Z" fill="#3f3f3f" stroke="#000000"></path><path d="M143 495L218 568L266 516Z" fill="#5a5a5a" stroke="#000000"></path><path d="M1392 0L1373 0L1345 88Z" fill="#171717" stroke="#000000"></path><path d="M1750 487L1586 619L1777 589Z" fill="#000000" stroke="#000000"></path><path d="M1729 244L1575 126L1624 325Z" fill="#5a5a5a" stroke="#000000"></path><path d="M1456 69L1392 0L1345 88Z" fill="#171717" stroke="#000000"></path><path d="M1493 0L1392 0L1456 69Z" fill="#363636" stroke="#000000"></path><path d="M267 226L251 361L393 291Z" fill="#3f3f3f" stroke="#000000"></path><path d="M143 495L191 585L218 568Z" fill="#171717" stroke="#000000"></path><path d="M429 72L440 262L533 154Z" fill="#2e2e2e" stroke="#000000"></path><path d="M1534 1080L1667 1007L1629 982Z" fill="#515151" stroke="#000000"></path><path d="M1629 982L1667 1007L1690 895Z" fill="#2e2e2e" stroke="#000000"></path><path d="M210 935L245 933L260 878Z" fill="#5a5a5a" stroke="#000000"></path><path d="M260 878L245 933L338 876Z" fill="#171717" stroke="#000000"></path><path d="M143 495L266 516L267 399Z" fill="#484848" stroke="#000000"></path><path d="M218 568L191 585L277 644Z" fill="#5a5a5a" stroke="#000000"></path><path d="M1777 589L1586 619L1656 723Z" fill="#2e2e2e" stroke="#000000"></path><path d="M1777 589L1656 723L1788 603Z" fill="#171717" stroke="#000000"></path><path d="M500 0L533 154L652 73Z" fill="#1e1e1e" stroke="#000000"></path><path d="M1696 304L1624 325L1656 337Z" fill="#363636" stroke="#000000"></path><path d="M1526 134L1493 0L1456 69Z" fill="#0d0d0d" stroke="#000000"></path><path d="M1696 304L1656 337L1679 350Z" fill="#171717" stroke="#000000"></path><path d="M1727 363L1696 304L1679 350Z" fill="#3f3f3f" stroke="#000000"></path><path d="M742 0L500 0L652 73Z" fill="#1e1e1e" stroke="#000000"></path><path d="M1750 487L1727 363L1679 350Z" fill="#0d0d0d" stroke="#000000"></path><path d="M1775 750L1699 785L1816 846Z" fill="#262626" stroke="#000000"></path><path d="M1775 750L1656 723L1699 785Z" fill="#5a5a5a" stroke="#000000"></path><path d="M1786 350L1779 345L1727 363Z" fill="#171717" stroke="#000000"></path><path d="M1816 846L1699 785L1690 895Z" fill="#171717" stroke="#000000"></path><path d="M500 0L492 0L429 72Z" fill="#1e1e1e" stroke="#000000"></path><path d="M1775 750L1788 603L1656 723Z" fill="#262626" stroke="#000000"></path><path d="M1777 589L1825 547L1750 487Z" fill="#262626" stroke="#000000"></path><path d="M170 883L210 935L260 878Z" fill="#262626" stroke="#000000"></path><path d="M245 933L213 987L394 961Z" fill="#1e1e1e" stroke="#000000"></path><path d="M429 72L267 226L440 262Z" fill="#000000" stroke="#000000"></path><path d="M143 495L139 616L191 585Z" fill="#3f3f3f" stroke="#000000"></path><path d="M204 167L267 226L231 56Z" fill="#000000" stroke="#000000"></path><path d="M438 0L416 41L429 72Z" fill="#515151" stroke="#000000"></path><path d="M1600 76L1526 134L1575 126Z" fill="#262626" stroke="#000000"></path><path d="M1600 76L1493 0L1526 134Z" fill="#484848" stroke="#000000"></path><path d="M210 935L213 987L245 933Z" fill="#000000" stroke="#000000"></path><path d="M143 495L267 399L113 404Z" fill="#2e2e2e" stroke="#000000"></path><path d="M191 585L139 616L277 644Z" fill="#000000" stroke="#000000"></path><path d="M210 935L185 970L213 987Z" fill="#484848" stroke="#000000"></path><path d="M139 616L170 883L277 644Z" fill="#1e1e1e" stroke="#000000"></path><path d="M492 0L438 0L429 72Z" fill="#2e2e2e" stroke="#000000"></path><path d="M231 56L267 226L429 72Z" fill="#5a5a5a" stroke="#000000"></path><path d="M1775 750L1817 631L1788 603Z" fill="#363636" stroke="#000000"></path><path d="M1788 603L1825 547L1777 589Z" fill="#363636" stroke="#000000"></path><path d="M113 404L267 399L251 361Z" fill="#484848" stroke="#000000"></path><path d="M1699 118L1600 76L1575 126Z" fill="#484848" stroke="#000000"></path><path d="M1729 244L1624 325L1696 304Z" fill="#1e1e1e" stroke="#000000"></path><path d="M170 883L185 970L210 935Z" fill="#484848" stroke="#000000"></path><path d="M1779 345L1696 304L1727 363Z" fill="#515151" stroke="#000000"></path><path d="M1779 345L1729 244L1696 304Z" fill="#1e1e1e" stroke="#000000"></path><path d="M1817 631L1825 547L1788 603Z" fill="#5a5a5a" stroke="#000000"></path><path d="M1534 1080L1716 1080L1667 1007Z" fill="#1e1e1e" stroke="#000000"></path><path d="M1838 876L1816 846L1690 895Z" fill="#484848" stroke="#000000"></path><path d="M1775 750L1920 761L1817 631Z" fill="#171717" stroke="#000000"></path><path d="M1786 350L1727 363L1838 439Z" fill="#2e2e2e" stroke="#000000"></path><path d="M1838 439L1727 363L1750 487Z" fill="#484848" stroke="#000000"></path><path d="M1779 345L1771 179L1729 244Z" fill="#515151" stroke="#000000"></path><path d="M1815 990L1690 895L1667 1007Z" fill="#3f3f3f" stroke="#000000"></path><path d="M1817 631L1920 555L1825 547Z" fill="#484848" stroke="#000000"></path><path d="M1716 1080L1736 1062L1667 1007Z" fill="#1e1e1e" stroke="#000000"></path><path d="M124 335L179 301L109 211Z" fill="#3f3f3f" stroke="#000000"></path><path d="M267 226L179 301L251 361Z" fill="#515151" stroke="#000000"></path><path d="M185 970L209 1080L213 987Z" fill="#1e1e1e" stroke="#000000"></path><path d="M213 987L209 1080L374 1080Z" fill="#5a5a5a" stroke="#000000"></path><path d="M1825 547L1838 439L1750 487Z" fill="#363636" stroke="#000000"></path><path d="M1771 179L1699 118L1729 244Z" fill="#3f3f3f" stroke="#000000"></path><path d="M1920 491L1838 439L1825 547Z" fill="#262626" stroke="#000000"></path><path d="M1815 990L1838 876L1690 895Z" fill="#3f3f3f" stroke="#000000"></path><path d="M1920 761L1920 555L1817 631Z" fill="#0d0d0d" stroke="#000000"></path><path d="M124 335L113 404L251 361Z" fill="#484848" stroke="#000000"></path><path d="M143 495L69 630L139 616Z" fill="#171717" stroke="#000000"></path><path d="M139 616L69 630L170 883Z" fill="#1e1e1e" stroke="#000000"></path><path d="M1729 244L1699 118L1575 126Z" fill="#3f3f3f" stroke="#000000"></path><path d="M1600 76L1635 0L1493 0Z" fill="#2e2e2e" stroke="#000000"></path><path d="M1771 179L1779 345L1920 236Z" fill="#171717" stroke="#000000"></path><path d="M0 518L69 630L143 495Z" fill="#3f3f3f" stroke="#000000"></path><path d="M170 883L20 914L185 970Z" fill="#171717" stroke="#000000"></path><path d="M185 970L80 1080L209 1080Z" fill="#3f3f3f" stroke="#000000"></path><path d="M204 167L179 301L267 226Z" fill="#5a5a5a" stroke="#000000"></path><path d="M179 301L124 335L251 361Z" fill="#1e1e1e" stroke="#000000"></path><path d="M113 404L19 472L143 495Z" fill="#0d0d0d" stroke="#000000"></path><path d="M1736 1062L1815 990L1667 1007Z" fill="#2e2e2e" stroke="#000000"></path><path d="M171 165L204 167L231 56Z" fill="#0d0d0d" stroke="#000000"></path><path d="M1920 236L1779 345L1786 350Z" fill="#0d0d0d" stroke="#000000"></path><path d="M1655 0L1600 76L1677 6Z" fill="#363636" stroke="#000000"></path><path d="M1655 0L1635 0L1600 76Z" fill="#363636" stroke="#000000"></path><path d="M231 56L429 72L416 41Z" fill="#000000" stroke="#000000"></path><path d="M204 167L171 165L179 301Z" fill="#000000" stroke="#000000"></path><path d="M1677 6L1600 76L1699 118Z" fill="#363636" stroke="#000000"></path><path d="M1716 1080L1820 1080L1736 1062Z" fill="#363636" stroke="#000000"></path><path d="M1736 1062L1820 1080L1815 990Z" fill="#262626" stroke="#000000"></path><path d="M1920 814L1816 846L1838 876Z" fill="#171717" stroke="#000000"></path><path d="M195 0L231 56L416 41Z" fill="#3f3f3f" stroke="#000000"></path><path d="M1920 761L1816 846L1920 814Z" fill="#5a5a5a" stroke="#000000"></path><path d="M1920 761L1775 750L1816 846Z" fill="#171717" stroke="#000000"></path><path d="M1838 439L1920 330L1786 350Z" fill="#2e2e2e" stroke="#000000"></path><path d="M1829 101L1677 6L1699 118Z" fill="#2e2e2e" stroke="#000000"></path><path d="M1920 814L1838 876L1920 852Z" fill="#515151" stroke="#000000"></path><path d="M1920 555L1920 491L1825 547Z" fill="#515151" stroke="#000000"></path><path d="M1820 1080L1830 1080L1815 990Z" fill="#5a5a5a" stroke="#000000"></path><path d="M1920 852L1838 876L1815 990Z" fill="#484848" stroke="#000000"></path><path d="M1920 491L1920 449L1838 439Z" fill="#171717" stroke="#000000"></path><path d="M1771 179L1829 101L1699 118Z" fill="#262626" stroke="#000000"></path><path d="M1920 1048L1920 852L1815 990Z" fill="#262626" stroke="#000000"></path><path d="M135 161L109 211L171 165Z" fill="#484848" stroke="#000000"></path><path d="M171 165L109 211L179 301Z" fill="#3f3f3f" stroke="#000000"></path><path d="M0 446L19 472L113 404Z" fill="#0d0d0d" stroke="#000000"></path><path d="M231 56L135 161L171 165Z" fill="#262626" stroke="#000000"></path><path d="M0 446L113 404L0 350Z" fill="#515151" stroke="#000000"></path><path d="M69 630L0 692L170 883Z" fill="#262626" stroke="#000000"></path><path d="M0 518L0 663L69 630Z" fill="#515151" stroke="#000000"></path><path d="M0 663L0 692L69 630Z" fill="#363636" stroke="#000000"></path><path d="M0 446L0 518L19 472Z" fill="#515151" stroke="#000000"></path><path d="M19 472L0 518L143 495Z" fill="#515151" stroke="#000000"></path><path d="M0 873L20 914L170 883Z" fill="#1e1e1e" stroke="#000000"></path><path d="M0 983L80 1080L185 970Z" fill="#2e2e2e" stroke="#000000"></path><path d="M0 350L113 404L124 335Z" fill="#363636" stroke="#000000"></path><path d="M1920 449L1920 330L1838 439Z" fill="#2e2e2e" stroke="#000000"></path><path d="M0 692L0 873L170 883Z" fill="#171717" stroke="#000000"></path><path d="M0 983L44 1070L80 1080Z" fill="#484848" stroke="#000000"></path><path d="M9 298L124 335L109 211Z" fill="#171717" stroke="#000000"></path><path d="M9 298L0 350L124 335Z" fill="#363636" stroke="#000000"></path><path d="M231 56L139 0L135 161Z" fill="#171717" stroke="#000000"></path><path d="M438 0L195 0L416 41Z" fill="#3f3f3f" stroke="#000000"></path><path d="M1920 209L1829 101L1771 179Z" fill="#3f3f3f" stroke="#000000"></path><path d="M9 298L109 211L0 269Z" fill="#5a5a5a" stroke="#000000"></path><path d="M0 962L185 970L20 914Z" fill="#171717" stroke="#000000"></path><path d="M0 873L0 962L20 914Z" fill="#0d0d0d" stroke="#000000"></path><path d="M0 269L109 211L0 50Z" fill="#000000" stroke="#000000"></path><path d="M1830 1080L1920 1048L1815 990Z" fill="#3f3f3f" stroke="#000000"></path><path d="M0 962L0 983L185 970Z" fill="#515151" stroke="#000000"></path><path d="M1920 330L1920 236L1786 350Z" fill="#515151" stroke="#000000"></path><path d="M1830 1080L1920 1080L1920 1048Z" fill="#0d0d0d" stroke="#000000"></path><path d="M1920 236L1920 209L1771 179Z" fill="#262626" stroke="#000000"></path><path d="M0 50L109 211L135 161Z" fill="#262626" stroke="#000000"></path><path d="M9 298L0 269L0 350Z" fill="#0d0d0d" stroke="#000000"></path><path d="M195 0L139 0L231 56Z" fill="#515151" stroke="#000000"></path><path d="M0 983L0 1080L44 1070Z" fill="#0d0d0d" stroke="#000000"></path><path d="M44 1070L0 1080L80 1080Z" fill="#0d0d0d" stroke="#000000"></path><path d="M139 0L57 12L135 161Z" fill="#1e1e1e" stroke="#000000"></path><path d="M139 0L51 0L57 12Z" fill="#0d0d0d" stroke="#000000"></path><path d="M57 12L0 50L135 161Z" fill="#363636" stroke="#000000"></path><path d="M1920 30L1899 0L1829 101Z" fill="#484848" stroke="#000000"></path><path d="M1829 101L1899 0L1677 6Z" fill="#1e1e1e" stroke="#000000"></path><path d="M1677 6L1899 0L1655 0Z" fill="#171717" stroke="#000000"></path><path d="M1920 209L1920 30L1829 101Z" fill="#000000" stroke="#000000"></path><path d="M0 0L0 50L57 12Z" fill="#3f3f3f" stroke="#000000"></path><path d="M1920 30L1920 0L1899 0Z" fill="#2e2e2e" stroke="#000000"></path><path d="M51 0L0 0L57 12Z" fill="#2e2e2e" stroke="#000000"></path></g></svg>