<svg id="visual" viewBox="0 0 1920 1080" width="1920" height="1080" xmlns="http://www.w3.org/2000/svg" xmlns:xlink="http://www.w3.org/1999/xlink" version="1.1"><rect x="0" y="0" width="1920" height="1080" fill="#000000"></rect><path d="M0 125L12.3 126.2C24.7 127.3 49.3 129.7 74 132.3C98.7 135 123.3 138 148 141C172.7 144 197.3 147 221.8 135.7C246.3 124.3 270.7 98.7 295.2 99.7C319.7 100.7 344.3 128.3 369 131.2C393.7 134 418.3 112 443 110.7C467.7 109.3 492.3 128.7 517 122.7C541.7 116.7 566.3 85.3 591 69.7C615.7 54 640.3 54 664.8 57.3C689.3 60.7 713.7 67.3 738.2 69.8C762.7 72.3 787.3 70.7 812 83.5C836.7 96.3 861.3 123.7 886 125.3C910.7 127 935.3 103 960 102.5C984.7 102 1009.3 125 1034 137.7C1058.7 150.3 1083.3 152.7 1108 140.2C1132.7 127.7 1157.3 100.3 1181.8 87.2C1206.3 74 1230.7 75 1255.2 78.2C1279.7 81.3 1304.3 86.7 1329 98.3C1353.7 110 1378.3 128 1403 127.5C1427.7 127 1452.3 108 1477 109.7C1501.7 111.3 1526.3 133.7 1551 133.7C1575.7 133.7 1600.3 111.3 1624.8 104C1649.3 96.7 1673.7 104.3 1698.2 103.3C1722.7 102.3 1747.3 92.7 1772 86.7C1796.7 80.7 1821.3 78.3 1846 76C1870.7 73.7 1895.3 71.3 1907.7 70.2L1920 69L1920 0L1907.7 0C1895.3 0 1870.7 0 1846 0C1821.3 0 1796.7 0 1772 0C1747.3 0 1722.7 0 1698.2 0C1673.7 0 1649.3 0 1624.8 0C1600.3 0 1575.7 0 1551 0C1526.3 0 1501.7 0 1477 0C1452.3 0 1427.7 0 1403 0C1378.3 0 1353.7 0 1329 0C1304.3 0 1279.7 0 1255.2 0C1230.7 0 1206.3 0 1181.8 0C1157.3 0 1132.7 0 1108 0C1083.3 0 1058.7 0 1034 0C1009.3 0 984.7 0 960 0C935.3 0 910.7 0 886 0C861.3 0 836.7 0 812 0C787.3 0 762.7 0 738.2 0C713.7 0 689.3 0 664.8 0C640.3 0 615.7 0 591 0C566.3 0 541.7 0 517 0C492.3 0 467.7 0 443 0C418.3 0 393.7 0 369 0C344.3 0 319.7 0 295.2 0C270.7 0 246.3 0 221.8 0C197.3 0 172.7 0 148 0C123.3 0 98.7 0 74 0C49.3 0 24.7 0 12.3 0L0 0Z" fill="#FFFFFF" stroke-linecap="round" stroke-linejoin="miter"></path></svg>