<svg id="visual" viewBox="0 0 1920 1080" width="1920" height="1080" xmlns="http://www.w3.org/2000/svg" xmlns:xlink="http://www.w3.org/1999/xlink" version="1.1"><rect x="0" y="0" width="1920" height="1080" fill="#ffffff"></rect><path d="M0 93L62 123L124 132L186 94L248 113L310 134L372 138L434 116L495 137L557 113L619 128L681 89L743 109L805 94L867 67L929 101L991 137L1053 113L1115 145L1177 82L1239 120L1301 84L1363 90L1425 113L1486 147L1548 142L1610 127L1672 107L1734 115L1796 90L1858 104L1920 138L1920 0L1858 0L1796 0L1734 0L1672 0L1610 0L1548 0L1486 0L1425 0L1363 0L1301 0L1239 0L1177 0L1115 0L1053 0L991 0L929 0L867 0L805 0L743 0L681 0L619 0L557 0L495 0L434 0L372 0L310 0L248 0L186 0L124 0L62 0L0 0Z" fill="#000000" stroke-linecap="square" stroke-linejoin="bevel"></path></svg>