<svg id="visual" viewBox="0 0 1920 1080" width="1920" height="1080" xmlns="http://www.w3.org/2000/svg" xmlns:xlink="http://www.w3.org/1999/xlink" version="1.1"><rect x="0" y="0" width="1920" height="1080" fill="#ffffff"></rect><path d="M0 83L62 83L62 84L124 84L124 89L186 89L186 77L248 77L248 86L310 86L310 99L372 99L372 103L434 103L434 74L495 74L495 92L557 92L557 69L619 69L619 101L681 101L681 137L743 137L743 117L805 117L805 124L867 124L867 111L929 111L929 78L991 78L991 116L1053 116L1053 142L1115 142L1115 78L1177 78L1177 149L1239 149L1239 139L1301 139L1301 108L1363 108L1363 149L1425 149L1425 96L1486 96L1486 140L1548 140L1548 76L1610 76L1610 131L1672 131L1672 145L1734 145L1734 144L1796 144L1796 81L1858 81L1858 88L1920 88L1920 114L1920 0L1920 0L1858 0L1858 0L1796 0L1796 0L1734 0L1734 0L1672 0L1672 0L1610 0L1610 0L1548 0L1548 0L1486 0L1486 0L1425 0L1425 0L1363 0L1363 0L1301 0L1301 0L1239 0L1239 0L1177 0L1177 0L1115 0L1115 0L1053 0L1053 0L991 0L991 0L929 0L929 0L867 0L867 0L805 0L805 0L743 0L743 0L681 0L681 0L619 0L619 0L557 0L557 0L495 0L495 0L434 0L434 0L372 0L372 0L310 0L310 0L248 0L248 0L186 0L186 0L124 0L124 0L62 0L62 0L0 0Z" fill="#000000" stroke-linecap="square" stroke-linejoin="miter"></path></svg>