<svg id="visual" viewBox="0 0 1920 1080" width="1920" height="1080" xmlns="http://www.w3.org/2000/svg" xmlns:xlink="http://www.w3.org/1999/xlink" version="1.1"><rect x="0" y="0" width="1920" height="1080" fill="#000000"></rect><path d="M0 57L10.3 65.3C20.7 73.7 41.3 90.3 62 87.3C82.7 84.3 103.3 61.7 124 48.5C144.7 35.3 165.3 31.7 186 57.5C206.7 83.3 227.3 138.7 248 163.2C268.7 187.7 289.3 181.3 310 179.8C330.7 178.3 351.3 181.7 372 165.8C392.7 150 413.3 115 433.8 112.3C454.3 109.7 474.7 139.3 495.2 129.3C515.7 119.3 536.3 69.7 557 45.5C577.7 21.3 598.3 22.7 619 52.2C639.7 81.7 660.3 139.3 681 167.5C701.7 195.7 722.3 194.3 743 182.5C763.7 170.7 784.3 148.3 805 151.3C825.7 154.3 846.3 182.7 867 165C887.7 147.3 908.3 83.7 929 56.8C949.7 30 970.3 40 991 53.8C1011.7 67.7 1032.3 85.3 1053 86C1073.7 86.7 1094.3 70.3 1115 56.8C1135.7 43.3 1156.3 32.7 1177 40.5C1197.7 48.3 1218.3 74.7 1239 89.2C1259.7 103.7 1280.3 106.3 1301 102.2C1321.7 98 1342.3 87 1363 74C1383.7 61 1404.3 46 1424.8 39C1445.3 32 1465.7 33 1486.2 59.8C1506.7 86.7 1527.3 139.3 1548 157C1568.7 174.7 1589.3 157.3 1610 136.7C1630.7 116 1651.3 92 1672 89C1692.7 86 1713.3 104 1734 108.2C1754.7 112.3 1775.3 102.7 1796 111.2C1816.7 119.7 1837.3 146.3 1858 156.3C1878.7 166.3 1899.3 159.7 1909.7 156.3L1920 153L1920 0L1909.7 0C1899.3 0 1878.7 0 1858 0C1837.3 0 1816.7 0 1796 0C1775.3 0 1754.7 0 1734 0C1713.3 0 1692.7 0 1672 0C1651.3 0 1630.7 0 1610 0C1589.3 0 1568.7 0 1548 0C1527.3 0 1506.7 0 1486.2 0C1465.7 0 1445.3 0 1424.8 0C1404.3 0 1383.7 0 1363 0C1342.3 0 1321.7 0 1301 0C1280.3 0 1259.7 0 1239 0C1218.3 0 1197.7 0 1177 0C1156.3 0 1135.7 0 1115 0C1094.3 0 1073.7 0 1053 0C1032.3 0 1011.7 0 991 0C970.3 0 949.7 0 929 0C908.3 0 887.7 0 867 0C846.3 0 825.7 0 805 0C784.3 0 763.7 0 743 0C722.3 0 701.7 0 681 0C660.3 0 639.7 0 619 0C598.3 0 577.7 0 557 0C536.3 0 515.7 0 495.2 0C474.7 0 454.3 0 433.8 0C413.3 0 392.7 0 372 0C351.3 0 330.7 0 310 0C289.3 0 268.7 0 248 0C227.3 0 206.7 0 186 0C165.3 0 144.7 0 124 0C103.3 0 82.7 0 62 0C41.3 0 20.7 0 10.3 0L0 0Z" fill="#ffffff" stroke-linecap="round" stroke-linejoin="miter"></path></svg>